<?xml version="1.0" encoding="UTF-8" standalone="no"?>
<!DOCTYPE svg PUBLIC "-//W3C//DTD SVG 1.1//EN" "http://www.w3.org/Graphics/SVG/1.1/DTD/svg11.dtd">
<svg version="1.1" xmlns="http://www.w3.org/2000/svg" xmlns:xlink="http://www.w3.org/1999/xlink" preserveAspectRatio="xMidYMid meet" viewBox="0 0 512 512" width="512" height="512"><defs><path d="M130.54 330.47L77.27 299.69L24 268.94L77.27 238.18L130.54 207.43L130.54 330.47Z" id="a3sun0dxS"></path><path d="M24 145.92L77.27 176.67L130.54 207.43L77.27 238.18L24 268.94L24 145.92Z" id="boDsK7lj2"></path><path d="M130.54 330.47L183.83 361.22L237.1 391.98L183.83 422.73L130.54 453.49L130.54 330.47Z" id="e9rGt2Irl"></path><path d="M77.27 361.22L130.54 330.47L77.27 299.69L24 268.94L24 391.98L77.27 361.22Z" id="g31Be4LfVe"></path><path d="M183.83 422.73L130.54 453.49L183.83 484.24L237.1 515L237.1 391.98L183.83 422.73Z" id="b1vmNQLdJG"></path><path d="M130.54 453.49L77.27 422.73L24 391.98L77.27 361.22L130.54 330.47L130.54 453.49Z" id="aDvfsixUh"></path><path d="M366.65 330.47L419.92 299.69L473.19 268.94L419.92 238.18L366.65 207.43L366.65 330.47Z" id="biXqKzL4v"></path><path d="M473.19 145.92L419.92 176.67L366.65 207.43L419.92 238.18L473.19 268.94L473.19 145.92Z" id="h3c6ypNv1"></path><path d="M366.65 391.98L366.65 330.47L313.36 361.22L260.09 391.98L313.36 422.73L366.63 453.49L366.65 391.98Z" id="d4XVkZuOqW"></path><path d="M419.92 361.22L366.65 330.47L419.92 299.69L473.19 268.94L473.19 391.98L419.92 361.22Z" id="aeREfmiwo"></path><path d="M313.36 422.73L366.63 453.49L313.36 484.24L260.09 515L260.09 391.98L313.36 422.73Z" id="bjCjqIgJi"></path><path d="M366.65 391.98L366.63 453.49L419.92 422.73L473.19 391.98L419.92 361.22L366.65 330.47L366.65 391.98Z" id="bdwH0WYfd"></path><path d="M301.87 156.8L248.59 126.04L301.87 95.28L355.15 64.51L355.15 187.55L301.87 156.8Z" id="b1nYDgwxT4"></path><path d="M408.42 95.27L461.69 126.04L408.42 156.8L355.15 187.55L355.15 64.51L408.42 95.27Z" id="fx7SdbPLf"></path><path d="M195.32 95.28L248.59 126.04L195.32 156.8L142.04 187.55L142.04 64.51L195.32 95.28Z" id="feHQG19vD"></path><path d="M248.59 126.04L301.87 95.28L355.15 64.51L301.87 33.76L248.59 3L248.59 126.04Z" id="a5q8SQg17b"></path><path d="M142.04 64.51L88.77 95.28L35.5 126.04L88.77 156.8L142.04 187.55L142.04 64.51Z" id="h6iZv9k4L"></path><path d="M195.32 95.28L142.04 64.51L195.32 33.76L248.59 3L248.59 126.04L195.32 95.28Z" id="flcVqQlUg"></path></defs><g><g><g transform="matrix(1 0 0 1 0 0)" vector-effect="non-scaling-stroke"><use xlink:href="#a3sun0dxS" opacity="1" fill="#f6911f" fill-opacity="1"></use><g><use xlink:href="#a3sun0dxS" opacity="1" fill-opacity="0" stroke="#000000" stroke-width="1" stroke-opacity="0"></use></g></g><g transform="matrix(1 0 0 1 0 0)" vector-effect="non-scaling-stroke"><use xlink:href="#boDsK7lj2" opacity="1" fill="#ffdd29" fill-opacity="1"></use><g><use xlink:href="#boDsK7lj2" opacity="1" fill-opacity="0" stroke="#000000" stroke-width="1" stroke-opacity="0"></use></g></g><g transform="matrix(1 0 0 1 0 0)" vector-effect="non-scaling-stroke"><use xlink:href="#e9rGt2Irl" opacity="1" fill="#a51e24" fill-opacity="1"></use><g><use xlink:href="#e9rGt2Irl" opacity="1" fill-opacity="0" stroke="#000000" stroke-width="1" stroke-opacity="0"></use></g></g><g transform="matrix(1 0 0 1 0 0)" vector-effect="non-scaling-stroke"><use xlink:href="#g31Be4LfVe" opacity="1" fill="#f1592a" fill-opacity="1"></use><g><use xlink:href="#g31Be4LfVe" opacity="1" fill-opacity="0" stroke="#000000" stroke-width="1" stroke-opacity="0"></use></g></g><g transform="matrix(1 0 0 1 0 0)" vector-effect="non-scaling-stroke"><use xlink:href="#b1vmNQLdJG" opacity="1" fill="#781c20" fill-opacity="1"></use><g><use xlink:href="#b1vmNQLdJG" opacity="1" fill-opacity="0" stroke="#000000" stroke-width="1" stroke-opacity="0"></use></g></g><g transform="matrix(1 0 0 1 0 0)" vector-effect="non-scaling-stroke"><use xlink:href="#aDvfsixUh" opacity="1" fill="#d02128" fill-opacity="1"></use><g><use xlink:href="#aDvfsixUh" opacity="1" fill-opacity="0" stroke="#000000" stroke-width="1" stroke-opacity="0"></use></g></g><g transform="matrix(1 0 0 1 0 0)" vector-effect="non-scaling-stroke"><use xlink:href="#biXqKzL4v" opacity="1" fill="#b367b2" fill-opacity="1"></use><g><use xlink:href="#biXqKzL4v" opacity="1" fill-opacity="0" stroke="#000000" stroke-width="1" stroke-opacity="0"></use></g></g><g transform="matrix(1 0 0 1 0 0)" vector-effect="non-scaling-stroke"><use xlink:href="#h3c6ypNv1" opacity="1" fill="#d9b3da" fill-opacity="1"></use><g><use xlink:href="#h3c6ypNv1" opacity="1" fill-opacity="0" stroke="#000000" stroke-width="1" stroke-opacity="0"></use></g></g><g transform="matrix(1 0 0 1 0 0)" vector-effect="non-scaling-stroke"><use xlink:href="#d4XVkZuOqW" opacity="1" fill="#4d014c" fill-opacity="1"></use><g><use xlink:href="#d4XVkZuOqW" opacity="1" fill-opacity="0" stroke="#000000" stroke-width="1" stroke-opacity="0"></use></g></g><g transform="matrix(1 0 0 1 0 0)" vector-effect="non-scaling-stroke"><use xlink:href="#aeREfmiwo" opacity="1" fill="#9a3198" fill-opacity="1"></use><g><use xlink:href="#aeREfmiwo" opacity="1" fill-opacity="0" stroke="#000000" stroke-width="1" stroke-opacity="0"></use></g></g><g transform="matrix(1 0 0 1 0 0)" vector-effect="non-scaling-stroke"><use xlink:href="#bjCjqIgJi" opacity="1" fill="#340033" fill-opacity="1"></use><g><use xlink:href="#bjCjqIgJi" opacity="1" fill-opacity="0" stroke="#000000" stroke-width="1" stroke-opacity="0"></use></g></g><g transform="matrix(1 0 0 1 0 0)" vector-effect="non-scaling-stroke"><use xlink:href="#bdwH0WYfd" opacity="1" fill="#690067" fill-opacity="1"></use><g><use xlink:href="#bdwH0WYfd" opacity="1" fill-opacity="0" stroke="#000000" stroke-width="1" stroke-opacity="0"></use></g></g><g transform="matrix(1 0 0 1 0 0)" vector-effect="non-scaling-stroke"><use xlink:href="#b1nYDgwxT4" opacity="1" fill="#042f85" fill-opacity="1"></use><g><use xlink:href="#b1nYDgwxT4" opacity="1" fill-opacity="0" stroke="#000000" stroke-width="1" stroke-opacity="0"></use></g></g><g transform="matrix(1 0 0 1 0 0)" vector-effect="non-scaling-stroke"><use xlink:href="#fx7SdbPLf" opacity="1" fill="#0d2659" fill-opacity="1"></use><g><use xlink:href="#fx7SdbPLf" opacity="1" fill-opacity="0" stroke="#000000" stroke-width="1" stroke-opacity="0"></use></g></g><g transform="matrix(1 0 0 1 0 0)" vector-effect="non-scaling-stroke"><use xlink:href="#feHQG19vD" opacity="1" fill="#027fcc" fill-opacity="1"></use><g><use xlink:href="#feHQG19vD" opacity="1" fill-opacity="0" stroke="#000000" stroke-width="1" stroke-opacity="0"></use></g></g><g transform="matrix(1 0 0 1 0 0)" vector-effect="non-scaling-stroke"><use xlink:href="#a5q8SQg17b" opacity="1" fill="#1845a2" fill-opacity="1"></use><g><use xlink:href="#a5q8SQg17b" opacity="1" fill-opacity="0" stroke="#000000" stroke-width="1" stroke-opacity="0"></use></g></g><g transform="matrix(1 0 0 1 0 0)" vector-effect="non-scaling-stroke"><use xlink:href="#h6iZv9k4L" opacity="1" fill="#0daee2" fill-opacity="1"></use><g><use xlink:href="#h6iZv9k4L" opacity="1" fill-opacity="0" stroke="#000000" stroke-width="1" stroke-opacity="0"></use></g></g><g transform="matrix(1 0 0 1 0 0)" vector-effect="non-scaling-stroke"><use xlink:href="#flcVqQlUg" opacity="1" fill="#0d51d9" fill-opacity="1"></use><g><use xlink:href="#flcVqQlUg" opacity="1" fill-opacity="0" stroke="#000000" stroke-width="1" stroke-opacity="0"></use></g></g></g></g></svg>